<?xml version="1.0" encoding="UTF-8"?>
<svg id="a" data-name="Icons-Trophies-FACup" xmlns="http://www.w3.org/2000/svg" width="440" height="440" viewBox="0 0 440 440">
  <path d="M131.78,310.041c0,7.068,5.726,12.803,12.794,12.803s12.794-5.735,12.794-12.803-5.726-12.794-12.794-12.794-12.794,5.727-12.794,12.794m25.588-181.088c0-7.068-5.726-12.794-12.794-12.794s-12.794,5.726-12.794,12.794,5.726,12.794,12.794,12.794,12.794-5.727,12.794-12.794m137.896,91.052c0-41.571-33.697-75.268-75.268-75.268s-75.259,33.697-75.259,75.268,33.697,75.259,75.259,75.259,75.268-33.697,75.268-75.259m12.957-91.052c0-7.068-5.726-12.794-12.794-12.794s-12.794,5.726-12.794,12.794,5.726,12.794,12.794,12.794,12.794-5.727,12.794-12.794m0,181.088c0-7.067-5.726-12.794-12.794-12.794s-12.794,5.727-12.794,12.794,5.726,12.803,12.794,12.803,12.794-5.735,12.794-12.803m61.523-90.036c0,82.697-67.041,149.738-149.747,149.738S70.257,302.702,70.257,220.005,137.298,70.257,219.995,70.257s149.747,67.041,149.747,149.748m70.257,91.124V128.871L311.129,0H128.871L0,128.871v182.257l128.871,128.872h182.258l128.871-128.872Z" fill="#001838"/>
</svg>