<?xml version="1.0" encoding="utf-8"?>
<!-- Generator: Adobe Illustrator 26.5.0, SVG Export Plug-In . SVG Version: 6.00 Build 0)  -->
<svg version="1.1" id="Icons-Trophies-LeagueCup" xmlns="http://www.w3.org/2000/svg" xmlns:xlink="http://www.w3.org/1999/xlink"
	 x="0px" y="0px" width="44px" height="44px" viewBox="0 0 44 44" style="enable-background:new 0 0 44 44;" xml:space="preserve">
<style type="text/css">
	.st0{fill:none;}
	.st1{fill:#001838;}
	.st2{fill:#3BD6FF;}
</style>
<rect id="Rectangle_100" class="st0" width="44" height="44"/>
<g>
	<g>
		<polygon class="st1" points="14.3,42 13,44 31,44 29.7,42 		"/>
		<path class="st1" d="M35.5,19.2c1.6-1.3,3.3-2.6,3.3-4.6c0-1.6-1.1-3.2-2.9-3.9c-1.3-0.6-3.2-0.7-5,0.3H22h-8.9
			c-1.8-1-3.6-0.9-5-0.3c-1.7,0.7-2.9,2.3-2.9,3.9c0,2,1.7,3.3,3.3,4.6c1.4,1.1,2.7,2.1,2.7,3.4c0,0.5-0.3,0.9-0.8,1.1
			c-0.6,0.2-1.3,0-1.9-0.6c-0.3-0.3-0.8-0.3-1.1,0c-0.3,0.3-0.3,0.8,0,1.1C8.2,25,9,25.4,9.9,25.4c0.4,0,0.7-0.1,1.1-0.2
			c0.4-0.2,0.7-0.4,1-0.7c0.1,4.5,4.1,6.8,7,7.8v0.1c0,1.5-4,1.7-4,2.7v6h14v-6c0-1-4-1.2-4-2.7v-0.1c2.9-1,6.9-3.3,7-7.8
			c0.3,0.3,0.6,0.5,1,0.7c0.3,0.1,0.7,0.2,1.1,0.2c0.9,0,1.8-0.4,2.5-1.2c0.3-0.3,0.3-0.8,0-1.1c-0.3-0.3-0.8-0.3-1.1,0
			c-0.6,0.6-1.3,0.9-1.9,0.6c-0.5-0.2-0.8-0.6-0.8-1.1C32.8,21.3,34.1,20.3,35.5,19.2z M9.5,18c-1.4-1.1-2.7-2.1-2.7-3.4
			c0-1,0.8-2,1.9-2.5s2.2-0.4,3.3,0.1v8.3C11.4,19.5,10.4,18.8,9.5,18z M32,20.4v-8.3c1.1-0.5,2.2-0.5,3.3-0.1
			c1.2,0.5,1.9,1.5,1.9,2.5c0,1.3-1.3,2.3-2.7,3.4C33.6,18.8,32.6,19.5,32,20.4z"/>
	</g>
	<polygon class="st2" points="19,11 19,16 19,24 22,21.3 25,24 25,16 25,11 	"/>
</g>
</svg>
