<?xml version="1.0" encoding="utf-8"?>
<!-- Generator: Adobe Illustrator 26.5.0, SVG Export Plug-In . SVG Version: 6.00 Build 0)  -->
<svg version="1.1" id="Layer_1" xmlns="http://www.w3.org/2000/svg" xmlns:xlink="http://www.w3.org/1999/xlink" x="0px" y="0px"
	 width="44px" height="44px" viewBox="0 0 44 44" style="enable-background:new 0 0 44 44;" xml:space="preserve">
<style type="text/css">
	.st0{fill:#001838;}
	.st1{fill:#3BD6FF;}
</style>
<g>
	<path class="st0" d="M25.6,39.9c-0.4-0.5-0.1-1.6,0.3-2.2c0.7-1.1,1.3-2.2,1.8-3.4C33,23.9,35.8,15.7,35.8,10c0-8.2-4.1-10-5.7-10
		c-1.8,0-3.8,1.1-3.8,4c0,1.6,1.2,2.4,2.4,3.2c1.1,0.8,2.1,1.5,2.1,2.9c0.1,1.1-0.7,2-1.8,2.2c0-0.1,0-0.2,0-0.3
		c0.9-0.9,1.3-1.9,0-1.9h-7h-7c-1.3,0-0.9,1,0,1.9c0,0.1,0,0.2,0,0.3c-1.1-0.2-1.8-1.1-1.7-2.2c0-1.3,1-2,2.1-2.8
		c1.1-0.8,2.4-1.6,2.4-3.2c0-1.8-0.7-4-4.2-4c-2,0-5.2,1.3-5.2,10c0,5.6,2.6,13.6,7.8,23.8c0.6,1.4,1.3,2.8,2.1,4
		c0.3,0.6,0.7,1.7,0.2,2.2c-1.1,1.2-3.4,1.8-3.4,3v1h14v-1C29,41.7,26.7,41.2,25.6,39.9z M32.3,10c0-2.1-1.5-3.2-2.8-4
		c-1.1-0.7-1.7-1.2-1.7-2c0-1.7,0.8-2.5,2.2-2.5c1.1,0,4.2,1.6,4.2,8.5c0,3.4-1.1,7.9-3.1,13.2c0.6-3.1,0.9-5.7,0.9-7.2
		c0-1.3-1.2-1.7-2.1-2.4C31.4,13.1,32.4,11.6,32.3,10z M9.8,10c0-5.4,1.4-8.5,3.8-8.5c2,0,2.8,0.7,2.8,2.5c0,0.7-0.6,1.2-1.7,2
		c-1.2,0.9-2.8,1.9-2.8,4c-0.1,1.6,0.9,3.1,2.4,3.6C13.2,14.3,12,14.7,12,16c0,1.5,0.3,4.1,0.9,7.1C10.8,17.8,9.8,13.4,9.8,10z"/>
	<polygon class="st1" points="19,10 19,15 19,23 22,20.3 25,23 25,15 25,10 	"/>
</g>
</svg>
