<?xml version="1.0" encoding="UTF-8"?>
<svg id="a" data-name="Icons-Trophies-FACup" xmlns="http://www.w3.org/2000/svg" width="44" height="44" xmlns:xlink="http://www.w3.org/1999/xlink" viewBox="0 0 44 44">
  <defs>
    <clipPath id="e">
      <polygon points="29.761 44 14.142 44 15.118 41.071 28.785 41.071 29.761 44" fill="none"/>
    </clipPath>
  </defs>
  <g id="b" data-name="Group">
    <g id="c" data-name="Group 13">
      <path d="M37.473,11.786c-2.05-.586-4.198-.098-5.564,1.074,0-.098-.098-.098-.098-.195-.879-1.367-2.733-2.245-5.564-2.636,.488-.195,.683-.488,.683-.781,0-.683-1.66-1.269-3.905-1.464v-.098c.879-.195,1.464-.488,1.464-.879s-.683-.683-1.562-.781V3.976l-.976-.976-.976,.976v2.05c-.879,.195-1.464,.488-1.464,.879s.586,.781,1.464,.879v.098c-2.245,.098-3.905,.683-3.905,1.464,0,.293,.293,.586,.879,.781-2.245,.39-4.783,1.171-5.76,2.636,0,.098-.098,.098-.098,.195-1.464-1.171-3.612-1.66-5.564-1.074-2.44,.683-3.807,2.636-3.807,5.174,0,2.245,2.05,4.1,4.1,6.15,2.05,1.952,4.198,4.002,4.588,6.345-.098,.39-.195,.976-.195,1.66,0,3.514,4.588,4.49,7.81,4.783-.39,2.148-3.905,2.538-3.905,4.1h13.667c0-1.562-3.417-1.952-3.905-3.905,5.174-.195,7.81-1.855,7.81-4.881,0-.683,0-1.171-.098-1.757,.293-2.343,2.44-4.393,4.588-6.443,2.148-2.05,4.1-3.905,4.1-6.15,0-2.538-1.464-4.49-3.807-5.174ZM12.092,27.112c-.976-1.952-2.733-3.612-4.295-5.076-1.855-1.757-3.71-3.514-3.71-5.076,0-2.636,1.952-3.514,2.831-3.71,1.562-.488,3.71-.098,4.783,1.464,.195,1.66,2.44,3.124,2.44,6.833,0,3.026-1.171,4.002-2.05,5.564Zm24.014-5.076c-1.66,1.562-3.319,3.221-4.295,5.076-.879-1.562-2.05-2.538-2.05-5.564,0-3.612,2.148-5.076,2.44-6.833h0c.976-1.562,3.124-1.952,4.783-1.464,.879,.195,2.831,1.074,2.831,3.71,0,1.562-1.757,3.319-3.71,5.076Z" fill="#001838"/>
      <path id="d" data-name="Combined Shape-3" d="M29.761,44H14.142l.976-2.929h13.667l.976,2.929Z" fill="#001838"/>
      <g clip-path="url(#e)">
        <g id="f" data-name="Group 13-2">
          <rect id="g" data-name="Rectangle" x="14.142" y="41.071" width="7.81" height="2.929" fill="#001838"/>
        </g>
      </g>
    </g>
  </g>
  <polygon points="4.4 18.033 4.4 24.476 4.4 26.429 4.4 33.262 6.841 30.333 9.281 33.262 9.281 26.233 9.281 24.476 9.281 23.402 4.4 18.033" fill="#3bd6ff"/>
  <polygon points="34.662 23.5 34.662 25.452 34.662 26.429 34.662 33.262 37.103 30.333 39.543 33.262 39.543 26.429 39.543 25.452 39.543 18.131 34.662 23.5" fill="#3bd6ff"/>
</svg>