<?xml version="1.0" encoding="utf-8"?>
<!-- Generator: Adobe Illustrator 26.5.0, SVG Export Plug-In . SVG Version: 6.00 Build 0)  -->
<svg version="1.1" id="Icons-Trophies-PremierLeague"
	 xmlns="http://www.w3.org/2000/svg" xmlns:xlink="http://www.w3.org/1999/xlink" x="0px" y="0px" width="44px" height="44px"
	 viewBox="0 0 44 44" style="enable-background:new 0 0 44 44;" xml:space="preserve">
<style type="text/css">
	.st0{fill:none;}
	.st1{fill:#001838;}
	.st2{fill:#3BD6FF;}
	.st3{fill:#F4BC46;}
</style>
<rect id="Rectangle_102" class="st0" width="44" height="44"/>
<g id="Group_17" transform="translate(9)">
	<g id="Stroke_1" transform="translate(13 8)">
		<path class="st0" d="M8.8,6h2.9c-0.3,3.4-0.9,6.4-1.7,9.2c-1,3.4-2.5,6.4-4.2,8.8c-1.6,2.1-3.2,3.4-4.2,4.1
			c-0.2,0.1-0.4,0.3-0.6,0.4v-0.1C3.1,26.7,7.8,21.2,8.8,6z"/>
		<path class="st0" d="M12,1c0,1.4-0.1,2.7-0.2,4h-3C8.9,3.7,9,2.4,9,1H12z"/>
	</g>
	<g id="Stroke_3" transform="translate(0 8)">
		<path class="st0" d="M4.1,5h-3C1.1,3.7,1,2.4,1,1h3C4,2.4,4.1,3.7,4.1,5z"/>
		<path class="st0" d="M12,28.3L12,28.3c-0.2,0-0.4-0.2-0.6-0.3c-1-0.7-2.6-2-4.2-4.1C5.4,21.6,4,18.6,3,15.2
			C2.1,12.4,1.6,9.4,1.3,6h2.9C5.2,21.2,9.9,26.7,12,28.3z"/>
		<path class="st1" d="M16.2,30.1c-0.5-0.4-1.1-0.7-1.7-0.9C18,27.2,26,20.3,26,0H0c0,20.3,8,27.2,11.4,29.2
			c-0.6,0.2-1.2,0.5-1.7,0.9c-1,0.8-1.7,1.8-2.2,2.9h10.8C18,31.9,17.2,30.9,16.2,30.1z M23,15.2c-1,3.4-2.5,6.4-4.2,8.8
			c-1.6,2.1-3.2,3.4-4.2,4.1c-0.2,0.1-0.4,0.3-0.6,0.4v-0.1c2.1-1.7,6.8-7.1,7.8-22.3h2.9C24.4,9.4,23.9,12.4,23,15.2z M25,1
			c0,1.4-0.1,2.7-0.2,4h-3C21.9,3.7,22,2.4,22,1H25z M4,1c0,1.4,0,2.7,0.1,4h-3C1.1,3.7,1,2.4,1,1H4z M11.4,28c-1-0.7-2.6-2-4.2-4.1
			C5.4,21.6,4,18.6,3,15.2C2.1,12.4,1.6,9.4,1.3,6h2.9c1,15.2,5.7,20.7,7.8,22.3v0.1C11.8,28.3,11.6,28.2,11.4,28z"/>
	</g>
	<polygon class="st2" points="10,8 10,13 10,21 13,18 16,21 16,13 16,8 	"/>
	<polygon class="st3" points="16,3 13,0 10,3 6,2 7.9,8 13,8 18.1,8 20,2 	"/>
	<path class="st1" d="M19,44H7c0-0.7,0.1-1.3,0.2-2h11.5C18.9,42.7,19,43.3,19,44z"/>
</g>
</svg>
