<?xml version="1.0" encoding="UTF-8"?>
<svg id="a" data-name="Icons-Trophies-FACup" xmlns="http://www.w3.org/2000/svg" width="440" height="440" viewBox="0 0 440 440">
  <circle cx="219.961" cy="82.747" r="61.747" fill="#f4bc46" stroke-width="0"/>
  <polygon points="299.492 439.999 138.53 439.999 161.146 388.186 276.876 388.186 299.492 439.999" fill="#f4bc46" stroke-width="0"/>
  <path d="m200.319,80.623l6.277,61.056c6.09,65.764,8.987,139.755.728,220.561l-3.632,25.946h26.981l-4.083-72.726c-2.811-50.08-3.469-100.257-1.97-150.394l4.756-90.021-29.057,5.578Z" fill="#001838" stroke-width="0"/>
  <path d="m299.919,83.506c-30.911,48.976-53.908,106.312-53.908,171.209,0,48.471,11.208,93.99,30.854,133.471h-17.246c-16.189-41.043-25.245-86.914-25.245-135.318,0-64.164,15.912-123.891,43.271-173.799l22.274,4.437Z" fill="#001838" stroke-width="0"/>
  <path d="m138.432,87.851c30.47,48.277,53.139,104.796,53.139,168.768,0,47.78-11.048,92.649-30.414,131.567h17c15.958-40.458,24.885-85.675,24.885-133.388,0-63.249-15.686-122.124-42.654-171.321l-21.956,4.374Z" fill="#001838" stroke-width="0"/>
</svg>