<svg id="Icons-Help-Guide-Football-Schools-Filled" xmlns="http://www.w3.org/2000/svg" xmlns:xlink="http://www.w3.org/1999/xlink" width="32" height="32" viewBox="0 0 32 32">
  <defs>
    <clipPath id="clip-path">
      <rect id="Rectangle_5082" data-name="Rectangle 5082" width="32" height="32" fill="none"/>
    </clipPath>
  </defs>
  <g id="Group_5159" data-name="Group 5159" clip-path="url(#clip-path)">
    <path id="Path_60089" data-name="Path 60089" d="M97.339,115.4v.078a1.217,1.217,0,0,1-1.146,1.28H84.007a10.386,10.386,0,0,0,1.508-2.64H96.192a1.219,1.219,0,0,1,1.146,1.282" transform="translate(-65.339 -88.76)" fill="#001838"/>
    <path id="Path_60090" data-name="Path 60090" d="M76.334,24.649A10.451,10.451,0,0,0,71.88,12.692l0-.016,3.09-11.124c.575-2.069,2.826-2.069,3.4,0l3.09,11.124L82.89,17.8l1.9,6.851Z" transform="translate(-55.907 0)" fill="#001838"/>
    <path id="Path_60091" data-name="Path 60091" d="M82.89,62.163H76.1a10.475,10.475,0,0,0-4.221-5.107l0-.016h9.582Z" transform="translate(-55.907 -44.365)" fill="#3bd6ff"/>
    <path id="Path_60092" data-name="Path 60092" d="M18.859,54.261c-.089-.116-.18-.24-.266-.349s-.15-.19-.23-.276a4.683,4.683,0,0,0-.338-.371c-.116-.126-.23-.243-.352-.359a10.514,10.514,0,0,0-1.911-1.448l-.01-.006c-.01-.006-.027-.009-.037-.015a10.371,10.371,0,0,0-7.352-1.224c-.2.038-.421.088-.621.142-.177.047-.344.1-.511.153s-.34.116-.5.176-.328.129-.49.2-.316.142-.467.224a2.288,2.288,0,0,0-.289.152,2.15,2.15,0,0,0-.294.161c-.107.062-.214.123-.319.193q-.243.152-.48.326A10.5,10.5,0,0,0,.42,57.534a.008.008,0,0,0-.006.01h0q-.071.242-.119.477a4.736,4.736,0,0,0-.108.49,7.362,7.362,0,0,0-.141,1.01,3.09,3.09,0,0,0-.022.377c-.018.178-.021.352-.024.525,0,.124,0,.255.012.384a2.429,2.429,0,0,0,.012.26c.011.195.022.39.051.588.011.1.025.216.044.318a1.223,1.223,0,0,0,.039.237c.018.127.043.252.07.385.042.187.082.365.131.55s.107.367.162.542q.069.225.16.443a.491.491,0,0,0,.037.106c.054.142.109.284.169.416.068.163.144.324.226.475.052.1.1.2.154.3.082.151.173.308.262.457,0,.008.012.013.014.021s.026.034.04.055a10.363,10.363,0,0,0,2.913,3.066c.1.072.2.136.3.2.14.094.286.178.433.263a5,5,0,0,0,.444.243c.144.077.294.144.445.218.3.134.612.256.925.378l.008,0c.163.055.326.11.487.158a9.352,9.352,0,0,0,1.483.311c.332.042.671.075,1.012.091l.513.01c.214,0,.434-.009.652-.026.162-.01.332-.023.489-.049.327-.038.65-.092.977-.163a1.288,1.288,0,0,0,.24-.056l.246-.066c.254-.068.513-.146.752-.235l.008,0a10.246,10.246,0,0,0,3.753-2.308c.1-.092.2-.193.292-.293a10.376,10.376,0,0,0,1.831-2.6c.074-.152.149-.3.214-.461l.195-.472c.122-.313.224-.637.317-.967.051-.178.094-.355.128-.537a8.957,8.957,0,0,0,.171-.96c.02-.17.033-.338.043-.514s.025-.336.028-.51a10.135,10.135,0,0,0-.349-2.93,10.386,10.386,0,0,0-1.674-3.48m-3.282-2.415.008,0a7.593,7.593,0,0,1,.671.446c.119.075.224.162.338.247a4.2,4.2,0,0,1,.423.348q.191.159.358.324a4.449,4.449,0,0,1,.34.346,3.68,3.68,0,0,1,.326.357,4.442,4.442,0,0,1,.307.379,2.122,2.122,0,0,1,.136.17l0,.008.063,2.66-3.113.028-3.213-3.142.151-2.479ZM12.018,68.181,7.744,67.6l-1.68-3.75,2.818-3.062,4.444.637,1.414,3.74Zm6.106-3.3-2.992.111-1.424-3.745,1.774-3.672,3.133-.016,1.174,3.672ZM4.982,52.406a.193.193,0,0,0-.045-.169l-.092-.1,0-.008c.215-.148.443-.284.672-.411a.029.029,0,0,1,.021-.014,4.312,4.312,0,0,1,.419-.219c.151-.082.3-.146.454-.212.132-.06.264-.12.4-.173a7.9,7.9,0,0,1,1.092-.35A1.209,1.209,0,0,1,8.13,50.7a2.227,2.227,0,0,1,.225-.052l.046-.012,3.55.835L11.8,53.962l-4,1.83L4.574,55ZM2.021,62.649l-.414,2.508a7.175,7.175,0,0,1-.36-.76,2.365,2.365,0,0,1-.159-.378c-.066-.155-.117-.314-.17-.482s-.106-.334-.151-.5A9.094,9.094,0,0,1,.55,62.014C.524,61.856.5,61.7.488,61.536a4.816,4.816,0,0,1-.043-.5,7.647,7.647,0,0,1-.009-.986,2.49,2.49,0,0,1,.019-.359,2.523,2.523,0,0,1,.034-.363A9.162,9.162,0,0,1,.73,57.987l.664.572.633,4.081Zm.4-.165L1.813,58.5,4.41,55.4l3.233.789.93,4.3L5.748,63.561ZM13.04,70.123a9.76,9.76,0,0,1-1.506.28c-.168.02-.327.038-.5.043a.1.1,0,0,1-.048,0,10.235,10.235,0,0,1-2.414-.16c-.139-.028-.279-.057-.41-.088-.2-.045-.39-.1-.585-.156-.126-.04-.252-.081-.38-.129a9.13,9.13,0,0,1-1.861-.86.541.541,0,0,1-.117-.067L5.1,68.923l.008,0,2.506-.911.008,0,4.368.6,1.4,1.412c-.121.041-.236.072-.351.1m7.353-8.57a9.508,9.508,0,0,1-.429,1.993c-.038.134-.086.262-.134.39s-.1.256-.154.379a9.22,9.22,0,0,1-.749,1.445c-.131.216-.272.427-.418.623a1.124,1.124,0,0,1-.092.115c-.151.205-.306.4-.47.579l.5-1.9.015-.037,1.728-3.783.24-.212a3.147,3.147,0,0,1-.04.406" transform="translate(0 -38.891)" fill="#001838"/>
  </g>
</svg>
